# xmcd
#
# Track frame offsets:
#	150
#	45247
#	83940
#	141685
#	183097
#	221632
#	245147
#
# Disc length: 3708 seconds
#
# Revision: 6
# Processed by: cddbd v1.5.2PL0 Copyright (c) Steve Scherf et al.
# Submitted via: audiograbber 1.83.01
#
DISCID=640e7a07
DTITLE=Highlights CD 3 (Stereoplay) - Various
DYEAR=1984
DGENRE=Classical
TTITLE0=L.v. Beethoven/ - Symphonie Nr.7, A-dur, op. 92 - 3.Satz - Staatskapell
TTITLE0=e Berlin - Otmar Suitner
TTITLE1=W.A. Mozart/ - Symphonie Nr.40 c-moll, KV 550 1.Satz - Staatskapelle Dr
TTITLE1=esden
TTITLE2=L.v. Beethoven/ - Symphonie Nr.9 dmoll, op. 125 "Choral" - 2 - Staatska
TTITLE2=pelle Berlin - Otmar Suitner
TTITLE3=J.S. Bach/ - Toccata und Fuge d-moll - BWV 565 - Hans Otto
TTITLE4=T. Albinoni/ - Adagio g-moll fuer Orchester und Orgel - Societas Musica
TTITLE4=Kammerorchester - Joergen E
TTITLE5=J.S. Bach/ - Air aus Orchestersuite Nr. 3 in D-dur, BW - Societas Music
TTITLE5=a Kammerorchester - Joergen 
TTITLE6=L.v. Beethoven/ - Symphonie Nr.5 c-moll, op. 67 - 1.Satz - A - Staatska
TTITLE6=pelle Berlin - Otmar Suitner
EXTD=
EXTT0=
EXTT1=
EXTT2=
EXTT3=
EXTT4=
EXTT5=
EXTT6=
PLAYORDER=
